<svg xmlns="http://www.w3.org/2000/svg" xmlns:xlink="http://www.w3.org/1999/xlink" width="216.436" height="36.702" viewBox="0 0 216.436 36.702">
  <defs>
    <clipPath id="clip-path">
      <rect id="Rectangle_1735" data-name="Rectangle 1735" width="216.436" height="36.702" fill="none"/>
    </clipPath>
  </defs>
  <g id="Primary_Horizontal" data-name="Primary Horizontal" clip-path="url(#clip-path)">
    <path id="Path_830" data-name="Path 830" d="M14.8,20.3h1.839c1.132,0,1.663.319,1.717,1.647v2.706h3.564V21.694c-.069-1.573-.388-2.46-1.733-2.955a3.151,3.151,0,0,0,1.966-2.955c0-2.779-2.232-3.736-4.688-3.736h-6.2v12.6H14.8Zm0-5.485h2.125c1.042,0,1.574.531,1.574,1.451s-.531,1.451-1.574,1.451H14.8Zm27.06,8.194H46.8l.531,1.647H51.08l-4.639-12.6H42.194l-4.479,12.6h3.609ZM43.7,17.182c.143-.441.335-1.1.6-2,.123.515.335,1.169.6,2l.936,2.9H42.775Zm19.609,7.467H54.194v-12.6h3.539V21.5h5.575Zm-28.16,0H25.2v-12.6h9.948V15.2H28.736v1.663h6.4v2.939h-6.4v1.7h6.408ZM74.563,0H0V36.7H216.436V0ZM71.081,33.219H3.482V3.482h67.6Zm141.872,0H74.584V3.482H212.95ZM102.2,24.653H98.656v-12.6H102.2v4.81h4.336v-4.81h3.539v12.6h-3.539V19.83H102.2Zm21.432,0H113.68v-12.6h9.944V15.2h-6.4v1.663h6.4v2.939h-6.4v1.7h6.4Zm6.813,0h-3.364v-12.6h5.415l1.2,4.778q.45,1.831.638,2.706.184-.875.638-2.706l1.2-4.778h5.415v12.6h-3.364V21.077q0-3.478.106-5.893c-.249.973-.495,1.913-.744,2.8l-1.823,6.67H132.9l-1.823-6.67c-.249-.883-.495-1.823-.744-2.8q.106,2.415.106,5.893Zm18.584,0h-3.539v-12.6h3.539Zm10.814-3.539c0-.707-.425-.956-1.982-1.222l-.989-.159c-2.918-.478-4.369-1.823-4.369-4.071,0-2.317,1.77-3.895,5.166-3.895s5.24,1.414,5.379,4.161h-3.327c-.053-1.009-.638-1.467-2-1.467-1.079,0-1.61.356-1.61,1.042s.515,1.009,1.839,1.238l1.042.176c3.114.515,4.5,1.68,4.5,3.928,0,2.706-2.142,4.087-5.558,4.087-3.682,0-5.628-1.733-5.628-4.422h3.4c.016,1.361.813,1.733,2.37,1.733,1.185,0,1.77-.372,1.77-1.132m9.576-5.91H165.7V12.053h10.974V15.2h-3.715v9.449h-3.539Zm27.677,4.6L192.4,12.053h3.981l.813,1.414c.781,1.361,1.361,2.391,1.733,3.078.515-.989,1.063-2.019,1.663-3.1l.781-1.4h3.874L200.627,19.8v4.851h-3.539ZM183.47,20.3h1.839c1.132,0,1.663.319,1.717,1.647v2.706h3.564V21.694c-.069-1.573-.388-2.46-1.733-2.955a3.151,3.151,0,0,0,1.966-2.955c0-2.779-2.232-3.736-4.688-3.736h-6.2v12.6h3.539Zm0-5.485H185.6c1.042,0,1.574.531,1.574,1.451s-.531,1.451-1.574,1.451H183.47ZM82.357,18.351a6.2,6.2,0,0,1,6.617-6.584c3.474,0,5.906,1.95,6.486,5.084H91.7a2.725,2.725,0,0,0-2.722-2.023c-1.786,0-2.939,1.328-2.939,3.523,0,1.86.866,3.523,2.939,3.523A2.7,2.7,0,0,0,91.713,19.8h3.756c-.568,3.151-3.016,5.137-6.494,5.137a6.215,6.215,0,0,1-6.617-6.584"/>
  </g>
</svg>
